<?xml version="1.0" encoding="UTF-8" standalone="no"?>
<svg
   xmlns:dc="http://purl.org/dc/elements/1.1/"
   xmlns:cc="http://creativecommons.org/ns#"
   xmlns:rdf="http://www.w3.org/1999/02/22-rdf-syntax-ns#"
   xmlns:svg="http://www.w3.org/2000/svg"
   xmlns="http://www.w3.org/2000/svg"
   viewBox="0 0 793.70135 1122.52"
   height="1122.52"
   width="793.70135"
   xml:space="preserve"
   id="svg2"
   version="1.1"><metadata
     id="metadata8"><rdf:RDF><cc:Work
         rdf:about=""><dc:format>image/svg+xml</dc:format><dc:type
           rdf:resource="http://purl.org/dc/dcmitype/StillImage" /></cc:Work></rdf:RDF></metadata><defs
     id="defs6"><clipPath
       id="clipPath56"
       clipPathUnits="userSpaceOnUse"><path
         id="path54"
         d="M 0,841.89 H 595.276 V 0 H 0 Z" /></clipPath></defs><g
     transform="matrix(1.3333333,0,0,-1.3333333,0,1122.52)"
     id="g10"><g
       transform="translate(243.1191,420.5771)"
       id="g12"><path
         id="path14"
         style="fill:#708e2a;fill-opacity:1;fill-rule:nonzero;stroke:none"
         d="m 0,0 -4.04,-7.015 1.328,-8.426 4.042,7.012 z" /></g><g
       transform="translate(253.374,418.8896)"
       id="g16"><path
         id="path18"
         style="fill:#95bb27;fill-opacity:1;fill-rule:nonzero;stroke:none"
         d="m 0,0 -10.255,1.688 1.33,-8.429 10.253,-1.688 z" /></g><g
       transform="translate(239.7051,434.9893)"
       id="g20"><path
         id="path22"
         style="fill:#8c282e;fill-opacity:1;fill-rule:nonzero;stroke:none"
         d="m 0,0 -7.26,-12.602 1.327,-8.431 7.259,12.604 z" /></g><g
       transform="translate(249.9609,433.3008)"
       id="g24"><path
         id="path26"
         style="fill:#bb2534;fill-opacity:1;fill-rule:nonzero;stroke:none"
         d="M 0,0 -10.256,1.688 -8.93,-6.74 1.327,-8.43 Z" /></g><g
       transform="translate(230.8662,428.2275)"
       id="g28"><path
         id="path30"
         style="fill:#af7023;fill-opacity:1;fill-rule:nonzero;stroke:none"
         d="m 0,0 -7.262,-12.6 1.328,-8.429 7.261,12.602 z" /></g><g
       transform="translate(241.1221,426.5391)"
       id="g32"><path
         id="path34"
         style="fill:#ec931b;fill-opacity:1;fill-rule:nonzero;stroke:none"
         d="M 0,0 -10.256,1.688 -8.929,-6.738 1.325,-8.426 Z" /></g><g
       transform="translate(260.5313,429.082)"
       id="g36"><path
         id="path38"
         style="fill:#2d2c2e;fill-opacity:1;fill-rule:nonzero;stroke:none"
         d="m 0,0 h 4.04 l 7.089,-11.53 0.049,0.049 L 10.979,0 h 4.488 V -18.35 H 11.4 L 4.411,-7.191 4.362,-7.216 4.486,-18.35 H 0 Z" /></g><g
       transform="translate(285.1963,417.1055)"
       id="g40"><path
         id="path42"
         style="fill:#2d2c2e;fill-opacity:1;fill-rule:nonzero;stroke:none"
         d="M 0,0 H 3.843 L 1.959,6.273 H 1.935 1.885 Z m -1.288,-3.72 -0.967,-2.653 h -5.031 l 7.361,18.35 h 3.694 l 7.289,-18.35 H 5.976 L 5.083,-3.72 Z" /></g><g
       transform="translate(299.7266,424.9658)"
       id="g44"><path
         id="path46"
         style="fill:#2d2c2e;fill-opacity:1;fill-rule:nonzero;stroke:none"
         d="M 0,0 H -3.619 V 4.116 H 8.279 V 0 H 4.686 V -14.233 H 0 Z" /></g><path
       id="path48"
       style="fill:#2d2c2e;fill-opacity:1;fill-rule:nonzero;stroke:none"
       d="m 309.891,429.082 h 4.686 v -18.35 h -4.686 z" /><g
       id="g50"><g
         clip-path="url(#clipPath56)"
         id="g52"><g
           transform="translate(318.6191,415.8652)"
           id="g58"><path
             id="path60"
             style="fill:#2d2c2e;fill-opacity:1;fill-rule:nonzero;stroke:none"
             d="m 0,0 c 0.1,-2.308 1.561,-3.794 3.816,-3.794 1.934,0 3.694,1.486 3.694,3.646 0,2.825 -2.852,3.544 -4.092,3.917 -1.658,0.496 -4.758,1.19 -4.758,4.835 0,2.853 2.256,4.935 5.156,4.935 3,0 5.082,-2.307 5.082,-4.985 H 7.064 c 0,1.86 -1.513,3.324 -3.248,3.324 -2.107,0 -3.322,-1.611 -3.322,-3.2 0,-2.231 1.959,-2.751 4.363,-3.447 4.512,-1.214 4.487,-4.76 4.487,-5.306 0,-2.827 -2.28,-5.381 -5.528,-5.381 -2.38,0 -5.576,1.414 -5.65,5.456 z" /></g><g
           transform="translate(339.3438,412.0713)"
           id="g62"><path
             id="path64"
             style="fill:#2d2c2e;fill-opacity:1;fill-rule:nonzero;stroke:none"
             d="m 0,0 c 4.238,0 7.881,3.447 7.881,7.811 0,4.29 -3.545,7.861 -7.881,7.861 -4.141,0 -7.857,-3.372 -7.857,-7.936 C -7.857,3.545 -4.266,0 0,0 m 0,17.333 c 5.154,0 9.717,-4.092 9.717,-9.498 0,-5.405 -4.586,-9.497 -9.717,-9.497 -5.207,0 -9.693,4.241 -9.693,9.398 0,5.778 4.808,9.597 9.693,9.597" /></g><g
           transform="translate(351.8633,429.082)"
           id="g66"><path
             id="path68"
             style="fill:#2d2c2e;fill-opacity:1;fill-rule:nonzero;stroke:none"
             d="M 0,0 H 9.271 V -1.661 H 1.836 V -8.308 H 8.998 V -9.969 H 1.836 V -18.35 H 0 Z" /></g><g
           transform="translate(366.5156,427.4209)"
           id="g70"><path
             id="path72"
             style="fill:#2d2c2e;fill-opacity:1;fill-rule:nonzero;stroke:none"
             d="M 0,0 H -4.215 V 1.661 H 6.023 V 0 H 1.834 V -16.688 H 0 Z" /></g></g></g></g></svg>