<?xml version="1.0" encoding="UTF-8" standalone="no"?>
<svg
   xmlns:dc="http://purl.org/dc/elements/1.1/"
   xmlns:cc="http://creativecommons.org/ns#"
   xmlns:rdf="http://www.w3.org/1999/02/22-rdf-syntax-ns#"
   xmlns:svg="http://www.w3.org/2000/svg"
   xmlns="http://www.w3.org/2000/svg"
   viewBox="0 0 266.66666 73.333336"
   height="73.333336"
   width="266.66666"
   xml:space="preserve"
   id="svg2"
   version="1.1"><metadata
     id="metadata8"><rdf:RDF><cc:Work
         rdf:about=""><dc:format>image/svg+xml</dc:format><dc:type
           rdf:resource="http://purl.org/dc/dcmitype/StillImage" /></cc:Work></rdf:RDF></metadata><defs
     id="defs6"><clipPath
       id="clipPath20"
       clipPathUnits="userSpaceOnUse"><path
         id="path18"
         d="M 0,55 H 200 V 0 H 0 Z" /></clipPath></defs><g
     transform="matrix(1.3333333,0,0,-1.3333333,0,73.333333)"
     id="g10"><path
       id="path12"
       style="fill:#000000;fill-opacity:1;fill-rule:nonzero;stroke:none"
       d="M 0,0 H 200 V 55 H 0 Z" /><g
       id="g14"><g
         clip-path="url(#clipPath20)"
         id="g16"><g
           transform="translate(90.9668,30.2949)"
           id="g22"><path
             id="path24"
             style="fill:#ffffff;fill-opacity:1;fill-rule:nonzero;stroke:none"
             d="M 0,0 C 0,0.848 -0.334,1.569 -1.001,2.161 -1.669,2.754 -2.477,3.05 -3.424,3.05 -4.479,3.05 -5.347,2.693 -6.024,1.98 -6.573,1.402 -6.848,0.742 -6.848,0 c 0,-0.742 0.275,-1.402 0.824,-1.98 0.667,-0.713 1.533,-1.07 2.6,-1.07 0.958,0 1.768,0.295 2.431,0.882 C -0.331,-1.581 0,-0.857 0,0 M 4.697,-6.427 H 0.836 v 1.408 c -0.478,-0.538 -0.961,-0.929 -1.449,-1.175 -0.855,-0.429 -1.826,-0.643 -2.914,-0.643 -1.76,0 -3.327,0.542 -4.699,1.625 -1.637,1.293 -2.456,3.005 -2.456,5.136 0,2.167 0.839,3.897 2.517,5.19 1.333,1.029 2.863,1.543 4.592,1.543 1.007,0 1.953,-0.187 2.838,-0.56 0.508,-0.219 1.032,-0.579 1.571,-1.08 v 1.244 h 3.861 z" /></g><g
           transform="translate(112.6074,23.9512)"
           id="g26"><path
             id="path28"
             style="fill:#ffffff;fill-opacity:1;fill-rule:nonzero;stroke:none"
             d="m 0,0 h -4.625 v 6.417 c 0,1.119 -0.131,1.861 -0.391,2.225 -0.382,0.537 -0.955,0.805 -1.716,0.805 -0.7,0 -1.286,-0.231 -1.762,-0.694 C -8.922,8.336 -9.137,7.684 -9.137,6.795 V 0 h -4.624 v 12.688 h 4.624 v -1.6 c 0.533,0.601 1.024,1.025 1.475,1.271 0.728,0.401 1.642,0.602 2.736,0.602 1.405,0 2.545,-0.369 3.424,-1.107 C -0.5,11.015 0,9.757 0,8.08 Z" /></g><g
           transform="translate(125.4375,36.4131)"
           id="g30"><path
             id="path32"
             style="fill:#ffffff;fill-opacity:1;fill-rule:nonzero;stroke:none"
             d="M 0,0 C 0,0.695 -0.209,1.25 -0.627,1.666 -1.047,2.082 -1.758,2.29 -2.764,2.29 h -1.679 v -4.648 h 1.666 c 1.08,0 1.822,0.228 2.226,0.685 C -0.184,-1.261 0,-0.704 0,0 m 5.172,0.055 c 0,-1.685 -0.408,-3.078 -1.223,-4.18 -1.058,-1.429 -2.814,-2.144 -5.271,-2.144 h -3.121 v -6.193 H -9.432 V 6.2 H -1.49 C 0.768,6.2 2.482,5.558 3.654,4.274 4.666,3.173 5.172,1.766 5.172,0.055" /></g><g
           transform="translate(141.1348,32.7085)"
           id="g34"><path
             id="path36"
             style="fill:#ffffff;fill-opacity:1;fill-rule:nonzero;stroke:none"
             d="m 0,0 c -0.729,-0.125 -1.07,-0.125 -1.736,-0.125 -1.512,0 -1.83,-0.773 -2.28,-1.985 -0.168,-0.438 -0.252,-1.026 -0.252,-1.764 V -9.302 H -8.893 V 3.386 h 4.625 V 1.308 c 0.487,0.738 1.01,1.271 1.571,1.599 0.756,0.438 1.017,0.656 2.054,0.656 0.243,0 0.288,0.027 0.643,0 z" /></g><g
           transform="translate(151.3789,29.8945)"
           id="g38"><path
             id="path40"
             style="fill:#ffffff;fill-opacity:1;fill-rule:nonzero;stroke:none"
             d="M 0,0 C 0,0.794 -0.268,1.468 -0.799,2.019 -1.332,2.571 -1.975,2.846 -2.729,2.846 -3.584,2.846 -4.277,2.511 -4.816,1.84 -5.252,1.302 -5.469,0.688 -5.469,0 c 0,-0.696 0.217,-1.314 0.653,-1.853 0.539,-0.671 1.232,-1.006 2.087,-1.006 0.762,0 1.407,0.276 1.936,0.827 C -0.264,-1.48 0,-0.803 0,0 m 3.887,0 c 0,-1.673 -0.491,-3.107 -1.475,-4.303 -1.191,-1.457 -2.857,-2.184 -5,-2.184 -2.15,0 -3.82,0.727 -5.014,2.184 -0.982,1.196 -1.472,2.665 -1.472,4.407 0,1.568 0.496,2.959 1.484,4.173 1.199,1.464 2.904,2.197 5.117,2.197 2.034,0 3.66,-0.733 4.875,-2.197 C 3.391,3.081 3.887,1.655 3.887,0" /></g><g
           transform="translate(71.0928,42)"
           id="g42"><path
             id="path44"
             style="fill:#ffffff;fill-opacity:1;fill-rule:nonzero;stroke:none"
             d="M 0,0 -4.027,-9.591 -8.053,0 h -6.04 v -18 h 4 V -5.312 L -5.048,-18 h 1.021 1.022 L 1.907,-5.312 V -18 h 5 V 0 Z" /></g><path
           id="path46"
           style="fill:#ffffff;fill-opacity:1;fill-rule:nonzero;stroke:none"
           d="m 158.32,26.27 h 2.635 v -2.563 h -2.635 z" /><g
           transform="translate(164.2871,23.7012)"
           id="g48"><path
             id="path50"
             style="fill:#ffffff;fill-opacity:1;fill-rule:nonzero;stroke:none"
             d="m 0,0 v 12.983 h 2.082 v -1.847 c 1.002,1.426 2.451,2.139 4.344,2.139 0.824,0 1.578,-0.14 2.267,-0.421 0.692,-0.281 1.205,-0.65 1.551,-1.106 0.342,-0.457 0.58,-0.998 0.719,-1.626 0.086,-0.408 0.129,-1.121 0.129,-2.14 V 0 H 8.777 v 7.897 c 0,0.896 -0.089,1.566 -0.269,2.011 -0.182,0.445 -0.5,0.799 -0.957,1.063 -0.459,0.265 -0.996,0.397 -1.614,0.397 -0.986,0 -1.835,-0.297 -2.55,-0.892 C 2.672,9.882 2.313,8.752 2.313,7.09 V 0 Z" /></g><g
           transform="translate(180.6738,31.4399)"
           id="g52"><path
             id="path54"
             style="fill:#ffffff;fill-opacity:1;fill-rule:nonzero;stroke:none"
             d="M 0,0 H 7.621 C 7.52,1.091 7.227,1.91 6.748,2.456 6.01,3.303 5.055,3.728 3.881,3.728 2.818,3.728 1.926,3.389 1.201,2.713 0.477,2.037 0.078,1.132 0,0 M 7.596,-3.559 9.986,-3.84 C 9.607,-5.168 8.91,-6.2 7.891,-6.932 6.871,-7.667 5.568,-8.033 3.984,-8.033 c -1.996,0 -3.58,0.585 -4.75,1.755 -1.168,1.169 -1.754,2.809 -1.754,4.921 0,2.183 0.592,3.878 1.774,5.085 1.183,1.206 2.717,1.809 4.6,1.809 1.828,0 3.318,-0.592 4.474,-1.772 1.158,-1.182 1.736,-2.846 1.736,-4.989 0,-0.13 -0.005,-0.325 -0.013,-0.587 h -10.18 c 0.086,-1.426 0.51,-2.517 1.272,-3.275 0.763,-0.758 1.714,-1.137 2.853,-1.137 0.848,0 1.572,0.211 2.174,0.635 0.6,0.423 1.074,1.1 1.426,2.029" /></g><g
           transform="translate(198.6152,25.6689)"
           id="g56"><path
             id="path58"
             style="fill:#ffffff;fill-opacity:1;fill-rule:nonzero;stroke:none"
             d="m 0,0 0.334,-1.944 c -0.65,-0.13 -1.234,-0.196 -1.748,-0.196 -0.84,0 -1.49,0.127 -1.955,0.379 -0.459,0.252 -0.787,0.585 -0.975,0.996 -0.187,0.412 -0.283,1.278 -0.283,2.598 v 7.47 h -1.695 v 1.712 h 1.695 v 3.348 h 2.301 V 11.015 H 0 V 9.303 H -2.326 V 1.712 c 0,-0.629 0.041,-1.031 0.123,-1.211 0.082,-0.18 0.213,-0.322 0.398,-0.428 0.184,-0.107 0.448,-0.159 0.789,-0.159 0.258,0 0.596,0.028 1.016,0.086" /></g><g
           transform="translate(33.6465,28.1558)"
           id="g60"><path
             id="path62"
             style="fill:#6b8a13;fill-opacity:1;fill-rule:nonzero;stroke:none"
             d="m 0,0 -6.743,-11.74 2.222,-14.114 6.787,11.792 z" /></g><g
           transform="translate(50.835,25.3604)"
           id="g64"><path
             id="path66"
             style="fill:#91b80f;fill-opacity:1;fill-rule:nonzero;stroke:none"
             d="m 0,0 -17.188,2.795 2.265,-14.062 17.165,-2.832 z" /></g><g
           transform="translate(27.9292,52.3018)"
           id="g68"><path
             id="path70"
             style="fill:#87101c;fill-opacity:1;fill-rule:nonzero;stroke:none"
             d="m 0,0 -12.134,-21.082 2.222,-14.103 12.158,21.073 z" /></g><g
           transform="translate(45.1177,49.4814)"
           id="g72"><path
             id="path74"
             style="fill:#ba0925;fill-opacity:1;fill-rule:nonzero;stroke:none"
             d="m 0,0 -17.188,2.82 2.246,-14.112 17.188,-2.819 z" /></g><g
           transform="translate(13.1582,40.9854)"
           id="g76"><path
             id="path78"
             style="fill:#ad6b03;fill-opacity:1;fill-rule:nonzero;stroke:none"
             d="m 0,0 -12.158,-21.079 2.22,-14.113 12.16,21.081 z" /></g><g
           transform="translate(30.3218,38.1533)"
           id="g80"><path
             id="path82"
             style="fill:#ea8f00;fill-opacity:1;fill-rule:nonzero;stroke:none"
             d="m 0,0 -17.164,2.832 2.223,-14.111 17.162,-2.82 z" /></g><g
           transform="translate(66.9751,17.585)"
           id="g84"><path
             id="path86"
             style="fill:#ad6b03;fill-opacity:1;fill-rule:nonzero;stroke:none"
             d="m 0,0 -1.869,-6.927 h -1.116 l -1.843,5.34 -1.831,-5.34 H -7.77 L -9.657,0 h 1.258 L -7.082,-5.364 -5.291,0 h 0.996 L -2.459,-5.364 -1.213,0 Z" /></g><g
           transform="translate(73.5439,14.8936)"
           id="g88"><path
             id="path90"
             style="fill:#ad6b03;fill-opacity:1;fill-rule:nonzero;stroke:none"
             d="M 0,0 C -0.004,0.612 -0.164,1.085 -0.478,1.42 -0.793,1.755 -1.271,1.923 -1.914,1.923 -2.56,1.923 -3.074,1.738 -3.458,1.37 -3.841,1.003 -4.058,0.546 -4.109,0 Z m 1.175,-0.894 h -5.284 c 0,-0.425 0.066,-0.796 0.199,-1.112 0.132,-0.316 0.314,-0.575 0.545,-0.778 0.223,-0.199 0.487,-0.348 0.794,-0.447 0.305,-0.099 0.643,-0.149 1.011,-0.149 0.488,0 0.979,0.094 1.473,0.282 0.495,0.189 0.847,0.373 1.057,0.556 h 0.064 v -1.271 c -0.407,-0.166 -0.822,-0.305 -1.246,-0.416 -0.423,-0.112 -0.869,-0.167 -1.335,-0.167 -1.191,0 -2.12,0.311 -2.787,0.932 -0.668,0.623 -1.002,1.506 -1.002,2.652 0,1.132 0.32,2.032 0.96,2.698 0.64,0.665 1.482,0.998 2.527,0.998 0.967,0 1.713,-0.274 2.238,-0.819 C 0.913,1.52 1.175,0.744 1.175,-0.261 Z" /></g><g
           transform="translate(81.6157,14.1426)"
           id="g92"><path
             id="path94"
             style="fill:#ad6b03;fill-opacity:1;fill-rule:nonzero;stroke:none"
             d="M 0,0 C 0,0.828 -0.142,1.455 -0.424,1.883 -0.707,2.311 -1.163,2.524 -1.792,2.524 -2.143,2.524 -2.498,2.451 -2.858,2.305 -3.217,2.158 -3.551,1.969 -3.859,1.736 v -3.968 c 0.342,-0.149 0.636,-0.252 0.882,-0.31 0.247,-0.058 0.526,-0.087 0.839,-0.087 0.667,0 1.191,0.212 1.57,0.636 C -0.19,-1.569 0,-0.904 0,0 m 1.246,0.031 c 0,-0.578 -0.085,-1.099 -0.254,-1.562 -0.17,-0.463 -0.397,-0.852 -0.684,-1.166 -0.304,-0.326 -0.638,-0.572 -1.002,-0.735 -0.364,-0.163 -0.764,-0.245 -1.201,-0.245 -0.406,0 -0.762,0.047 -1.065,0.14 -0.304,0.094 -0.604,0.219 -0.899,0.375 l -0.078,-0.322 h -1.129 v 9.648 h 1.207 V 2.717 c 0.338,0.268 0.697,0.488 1.079,0.66 0.38,0.172 0.808,0.258 1.284,0.258 C -0.649,3.635 0.02,3.32 0.51,2.691 1,2.063 1.246,1.177 1.246,0.031" /></g><g
           transform="translate(93.02,14.1738)"
           id="g96"><path
             id="path98"
             style="fill:#ad6b03;fill-opacity:1;fill-rule:nonzero;stroke:none"
             d="m 0,0 c 0,0.836 -0.138,1.46 -0.415,1.873 -0.278,0.414 -0.703,0.62 -1.277,0.62 -0.326,0 -0.653,-0.072 -0.982,-0.217 C -3.003,2.131 -3.319,1.941 -3.62,1.705 V -2.22 c 0.321,-0.148 0.597,-0.25 0.828,-0.303 0.231,-0.054 0.494,-0.081 0.787,-0.081 0.63,0 1.122,0.219 1.475,0.657 C -0.177,-1.509 0,-0.859 0,0 M 1.169,0.031 C 1.169,-0.531 1.09,-1.045 0.934,-1.51 0.777,-1.975 0.556,-2.368 0.271,-2.691 0.006,-2.997 -0.306,-3.233 -0.666,-3.4 c -0.358,-0.168 -0.739,-0.252 -1.141,-0.252 -0.349,0 -0.666,0.039 -0.948,0.118 -0.284,0.079 -0.572,0.2 -0.865,0.366 V -6.07 H -4.752 V 3.411 H -3.62 V 2.686 c 0.301,0.259 0.64,0.478 1.015,0.654 0.376,0.176 0.776,0.264 1.202,0.264 0.811,0 1.442,-0.316 1.894,-0.946 C 0.943,2.027 1.169,1.152 1.169,0.031" /></g><g
           transform="translate(100.519,14.1191)"
           id="g100"><path
             id="path102"
             style="fill:#ad6b03;fill-opacity:1;fill-rule:nonzero;stroke:none"
             d="m 0,0 c 0,0.896 -0.17,1.562 -0.512,1.999 -0.342,0.437 -0.814,0.654 -1.421,0.654 -0.615,0 -1.091,-0.217 -1.43,-0.654 -0.34,-0.437 -0.51,-1.103 -0.51,-1.999 0,-0.869 0.171,-1.527 0.513,-1.976 0.341,-0.448 0.816,-0.672 1.427,-0.672 0.603,0 1.075,0.222 1.418,0.666 C -0.171,-1.537 0,-0.877 0,0 m 1.168,0 c 0,-1.129 -0.279,-2.02 -0.842,-2.674 -0.562,-0.652 -1.316,-0.979 -2.259,-0.979 -0.952,0 -1.708,0.327 -2.268,0.979 -0.56,0.654 -0.84,1.545 -0.84,2.674 0,1.128 0.28,2.02 0.84,2.676 0.56,0.654 1.316,0.982 2.268,0.982 0.943,0 1.697,-0.328 2.259,-0.982 C 0.889,2.02 1.168,1.128 1.168,0" /></g><g
           transform="translate(107.6387,16.3135)"
           id="g104"><path
             id="path106"
             style="fill:#ad6b03;fill-opacity:1;fill-rule:nonzero;stroke:none"
             d="m 0,0 h -0.061 c -0.168,0.042 -0.332,0.071 -0.49,0.091 -0.158,0.017 -0.345,0.027 -0.562,0.027 -0.35,0 -0.688,-0.08 -1.014,-0.238 -0.324,-0.16 -0.637,-0.365 -0.937,-0.617 v -4.918 h -1.133 v 6.926 h 1.133 V 0.248 c 0.449,0.372 0.845,0.636 1.189,0.791 0.342,0.155 0.693,0.232 1.051,0.232 0.195,0 0.338,-0.004 0.428,-0.015 C -0.309,1.245 -0.178,1.226 0,1.197 Z" /></g><g
           transform="translate(112.1992,10.7207)"
           id="g108"><path
             id="path110"
             style="fill:#ad6b03;fill-opacity:1;fill-rule:nonzero;stroke:none"
             d="m 0,0 c -0.213,-0.059 -0.445,-0.105 -0.697,-0.143 -0.25,-0.037 -0.473,-0.056 -0.672,-0.056 -0.686,0 -1.207,0.19 -1.565,0.57 -0.357,0.381 -0.537,0.99 -0.537,1.83 v 3.684 h -0.763 v 0.979 h 0.763 v 1.991 h 1.133 V 6.864 H 0 V 5.885 H -2.338 V 2.729 c 0,-0.365 0.008,-0.649 0.024,-0.854 0.017,-0.204 0.074,-0.396 0.169,-0.573 0.088,-0.165 0.209,-0.286 0.364,-0.363 0.154,-0.077 0.39,-0.115 0.709,-0.115 0.183,0 0.377,0.028 0.578,0.084 0.201,0.056 0.346,0.102 0.433,0.139 l 0.061,0 z" /></g><g
           transform="translate(117.668,12.3633)"
           id="g112"><path
             id="path114"
             style="fill:#ad6b03;fill-opacity:1;fill-rule:nonzero;stroke:none"
             d="M 0,0 V 1.929 C -0.346,1.908 -0.754,1.877 -1.221,1.836 -1.687,1.795 -2.059,1.734 -2.332,1.656 -2.656,1.561 -2.92,1.413 -3.121,1.213 -3.322,1.012 -3.422,0.736 -3.422,0.385 c 0,-0.397 0.117,-0.696 0.35,-0.897 0.232,-0.2 0.588,-0.3 1.066,-0.3 0.397,0 0.76,0.08 1.09,0.239 C -0.588,-0.414 -0.281,-0.223 0,0 M 1.127,-1.705 H 0 v 0.738 c -0.102,-0.07 -0.236,-0.169 -0.408,-0.295 -0.17,-0.126 -0.336,-0.226 -0.496,-0.3 -0.188,-0.096 -0.407,-0.174 -0.651,-0.239 -0.244,-0.064 -0.531,-0.096 -0.861,-0.096 -0.607,0 -1.119,0.207 -1.543,0.62 -0.42,0.414 -0.631,0.94 -0.631,1.582 0,0.524 0.11,0.949 0.328,1.273 0.219,0.324 0.532,0.58 0.936,0.766 0.41,0.186 0.902,0.312 1.476,0.379 0.575,0.066 1.192,0.115 1.85,0.148 v 0.18 c 0,0.265 -0.047,0.484 -0.137,0.658 -0.09,0.174 -0.22,0.31 -0.386,0.408 -0.163,0.096 -0.356,0.16 -0.581,0.194 -0.224,0.033 -0.458,0.048 -0.705,0.048 -0.296,0 -0.627,-0.04 -0.994,-0.121 -0.365,-0.08 -0.742,-0.197 -1.131,-0.349 h -0.06 v 1.183 c 0.221,0.063 0.539,0.131 0.959,0.205 0.416,0.075 0.828,0.112 1.232,0.112 0.475,0 0.887,-0.04 1.239,-0.121 C -0.213,5.187 0.092,5.05 0.348,4.855 0.602,4.666 0.795,4.42 0.928,4.117 1.061,3.816 1.127,3.441 1.127,2.996 Z" /></g><path
           id="path116"
           style="fill:#ad6b03;fill-opacity:1;fill-rule:nonzero;stroke:none"
           d="m 121.619,10.658 h -1.133 v 9.648 h 1.133 z" /></g></g></g></svg>